<?xml version="1.0" encoding="UTF-8" standalone="no"?>
<!DOCTYPE svg PUBLIC "-//W3C//DTD SVG 1.1//EN"
 "http://www.w3.org/Graphics/SVG/1.1/DTD/svg11.dtd">
<!-- Generated by graphviz version 2.46.0 (20210119.1425)
 -->
<!-- Title: dependencies Pages: 1 -->
<svg width="504pt" height="211pt"
 viewBox="0.00 0.00 504.00 211.00" xmlns="http://www.w3.org/2000/svg" xmlns:xlink="http://www.w3.org/1999/xlink">
<g id="graph0" class="graph" transform="scale(1 1) rotate(0) translate(4 207)">
<title>dependencies</title>
<polygon fill="white" stroke="transparent" points="-4,4 -4,-207 500,-207 500,4 -4,4"/>
<text text-anchor="start" x="227.01" y="-42.4" font-family="sans-serif" font-weight="bold" font-size="14.00">Legend</text>
<polygon fill="#ffffb3" stroke="transparent" points="14,-10 14,-30 34,-30 34,-10 14,-10"/>
<text text-anchor="start" x="37.63" y="-15.4" font-family="sans-serif" font-size="14.00"> &#160;Declarations</text>
<polygon fill="#8dd3c7" stroke="transparent" points="127,-10 127,-30 147,-30 147,-10 127,-10"/>
<text text-anchor="start" x="150.73" y="-15.4" font-family="sans-serif" font-size="14.00"> &#160;Module</text>
<polygon fill="#80b1d3" stroke="transparent" points="213,-10 213,-30 233,-30 233,-10 213,-10"/>
<text text-anchor="start" x="236.78" y="-15.4" font-family="sans-serif" font-size="14.00"> &#160;Bootstrap</text>
<polygon fill="#fdb462" stroke="transparent" points="310,-10 310,-30 330,-30 330,-10 310,-10"/>
<text text-anchor="start" x="333.67" y="-15.4" font-family="sans-serif" font-size="14.00"> &#160;Providers</text>
<polygon fill="#fb8072" stroke="transparent" points="406,-10 406,-30 426,-30 426,-10 406,-10"/>
<text text-anchor="start" x="429.73" y="-15.4" font-family="sans-serif" font-size="14.00"> &#160;Exports</text>
<g id="clust1" class="cluster">
<title>cluster_ViewMessagePageModule</title>
<polygon fill="none" stroke="black" stroke-dasharray="1,5" points="53,-70 53,-195 443,-195 443,-70 53,-70"/>
</g>
<g id="clust4" class="cluster">
<title>cluster_ViewMessagePageModule_imports</title>
<polygon fill="none" stroke="black" points="207,-78 207,-130 435,-130 435,-78 207,-78"/>
</g>
<g id="clust2" class="cluster">
<title>cluster_ViewMessagePageModule_declarations</title>
<polygon fill="none" stroke="black" points="61,-78 61,-130 199,-130 199,-78 61,-78"/>
</g>
<!-- ViewMessagePage -->
<g id="node1" class="node">
<title>ViewMessagePage</title>
<polygon fill="#ffffb3" stroke="black" points="191.01,-122 68.99,-122 68.99,-86 191.01,-86 191.01,-122"/>
<text text-anchor="middle" x="130" y="-99.8" font-family="Times,serif" font-size="14.00">ViewMessagePage</text>
</g>
<!-- ViewMessagePageModule -->
<g id="node2" class="node">
<title>ViewMessagePageModule</title>
<polygon fill="#8dd3c7" stroke="black" points="315.06,-187 312.06,-191 291.06,-191 288.06,-187 148.94,-187 148.94,-151 315.06,-151 315.06,-187"/>
<text text-anchor="middle" x="232" y="-164.8" font-family="Times,serif" font-size="14.00">ViewMessagePageModule</text>
</g>
<!-- ViewMessagePage&#45;&gt;ViewMessagePageModule -->
<g id="edge1" class="edge">
<title>ViewMessagePage&#45;&gt;ViewMessagePageModule</title>
<path fill="none" stroke="black" d="M170.11,-122.11C170.11,-122.11 170.11,-140.99 170.11,-140.99"/>
<polygon fill="black" stroke="black" points="166.61,-140.99 170.11,-150.99 173.61,-140.99 166.61,-140.99"/>
</g>
<!-- ViewMessagePageRoutingModule -->
<g id="node3" class="node">
<title>ViewMessagePageRoutingModule</title>
<polygon fill="#8dd3c7" stroke="black" points="426.68,-122 423.68,-126 402.68,-126 399.68,-122 215.32,-122 215.32,-86 426.68,-86 426.68,-122"/>
<text text-anchor="middle" x="321" y="-99.8" font-family="Times,serif" font-size="14.00">ViewMessagePageRoutingModule</text>
</g>
<!-- ViewMessagePageRoutingModule&#45;&gt;ViewMessagePageModule -->
<g id="edge2" class="edge">
<title>ViewMessagePageRoutingModule&#45;&gt;ViewMessagePageModule</title>
<path fill="none" stroke="black" d="M265.22,-122.11C265.22,-122.11 265.22,-140.99 265.22,-140.99"/>
<polygon fill="black" stroke="black" points="261.72,-140.99 265.22,-150.99 268.72,-140.99 261.72,-140.99"/>
</g>
</g>
</svg>
