<?xml version="1.0" encoding="UTF-8" standalone="no"?>
<!DOCTYPE svg PUBLIC "-//W3C//DTD SVG 1.1//EN"
 "http://www.w3.org/Graphics/SVG/1.1/DTD/svg11.dtd">
<!-- Generated by graphviz version 2.46.0 (20210119.1425)
 -->
<!-- Title: dependencies Pages: 1 -->
<svg width="1218pt" height="284pt"
 viewBox="0.00 0.00 1218.00 284.00" xmlns="http://www.w3.org/2000/svg" xmlns:xlink="http://www.w3.org/1999/xlink">
<g id="graph0" class="graph" transform="scale(1 1) rotate(0) translate(4 280)">
<title>dependencies</title>
<polygon fill="white" stroke="transparent" points="-4,4 -4,-280 1214,-280 1214,4 -4,4"/>
<text text-anchor="start" x="584.01" y="-42.4" font-family="sans-serif" font-weight="bold" font-size="14.00">Legend</text>
<polygon fill="#ffffb3" stroke="transparent" points="371,-10 371,-30 391,-30 391,-10 371,-10"/>
<text text-anchor="start" x="394.63" y="-15.4" font-family="sans-serif" font-size="14.00"> &#160;Declarations</text>
<polygon fill="#8dd3c7" stroke="transparent" points="484,-10 484,-30 504,-30 504,-10 484,-10"/>
<text text-anchor="start" x="507.73" y="-15.4" font-family="sans-serif" font-size="14.00"> &#160;Module</text>
<polygon fill="#80b1d3" stroke="transparent" points="570,-10 570,-30 590,-30 590,-10 570,-10"/>
<text text-anchor="start" x="593.78" y="-15.4" font-family="sans-serif" font-size="14.00"> &#160;Bootstrap</text>
<polygon fill="#fdb462" stroke="transparent" points="667,-10 667,-30 687,-30 687,-10 667,-10"/>
<text text-anchor="start" x="690.67" y="-15.4" font-family="sans-serif" font-size="14.00"> &#160;Providers</text>
<polygon fill="#fb8072" stroke="transparent" points="763,-10 763,-30 783,-30 783,-10 763,-10"/>
<text text-anchor="start" x="786.73" y="-15.4" font-family="sans-serif" font-size="14.00"> &#160;Exports</text>
<g id="clust1" class="cluster">
<title>cluster_AppModule</title>
<polygon fill="none" stroke="black" stroke-dasharray="1,5" points="8,-70 8,-268 298,-268 298,-70 8,-70"/>
</g>
<g id="clust2" class="cluster">
<title>cluster_AppModule_declarations</title>
<polygon fill="none" stroke="black" points="168,-78 168,-130 290,-130 290,-78 168,-78"/>
</g>
<g id="clust4" class="cluster">
<title>cluster_AppModule_imports</title>
<polygon fill="none" stroke="black" points="16,-78 16,-130 160,-130 160,-78 16,-78"/>
</g>
<g id="clust6" class="cluster">
<title>cluster_AppModule_bootstrap</title>
<polygon fill="none" stroke="black" points="96,-208 96,-260 220,-260 220,-208 96,-208"/>
</g>
<g id="clust14" class="cluster">
<title>cluster_HomePageModule</title>
<polygon fill="none" stroke="black" stroke-dasharray="1,5" points="306,-70 306,-195 606,-195 606,-70 306,-70"/>
</g>
<g id="clust15" class="cluster">
<title>cluster_HomePageModule_declarations</title>
<polygon fill="none" stroke="black" points="504,-78 504,-130 598,-130 598,-78 504,-78"/>
</g>
<g id="clust17" class="cluster">
<title>cluster_HomePageModule_imports</title>
<polygon fill="none" stroke="black" points="314,-78 314,-130 496,-130 496,-78 314,-78"/>
</g>
<g id="clust27" class="cluster">
<title>cluster_MessageComponentModule</title>
<polygon fill="none" stroke="black" stroke-dasharray="1,5" points="614,-70 614,-268 804,-268 804,-70 614,-70"/>
</g>
<g id="clust28" class="cluster">
<title>cluster_MessageComponentModule_declarations</title>
<polygon fill="none" stroke="black" points="636,-78 636,-130 782,-130 782,-78 636,-78"/>
</g>
<g id="clust31" class="cluster">
<title>cluster_MessageComponentModule_exports</title>
<polygon fill="none" stroke="black" points="634,-208 634,-260 784,-260 784,-208 634,-208"/>
</g>
<g id="clust34" class="cluster">
<title>cluster_ViewMessagePageModule</title>
<polygon fill="none" stroke="black" stroke-dasharray="1,5" points="812,-70 812,-195 1202,-195 1202,-70 812,-70"/>
</g>
<g id="clust35" class="cluster">
<title>cluster_ViewMessagePageModule_declarations</title>
<polygon fill="none" stroke="black" points="1056,-78 1056,-130 1194,-130 1194,-78 1056,-78"/>
</g>
<g id="clust37" class="cluster">
<title>cluster_ViewMessagePageModule_imports</title>
<polygon fill="none" stroke="black" points="820,-78 820,-130 1048,-130 1048,-78 820,-78"/>
</g>
<!-- AppComponent -->
<g id="node1" class="node">
<title>AppComponent</title>
<polygon fill="#ffffb3" stroke="black" points="281.94,-122 176.06,-122 176.06,-86 281.94,-86 281.94,-122"/>
<text text-anchor="middle" x="229" y="-99.8" font-family="Times,serif" font-size="14.00">AppComponent</text>
</g>
<!-- AppModule -->
<g id="node2" class="node">
<title>AppModule</title>
<polygon fill="#8dd3c7" stroke="black" points="199.66,-187 196.66,-191 175.66,-191 172.66,-187 116.34,-187 116.34,-151 199.66,-151 199.66,-187"/>
<text text-anchor="middle" x="158" y="-164.8" font-family="Times,serif" font-size="14.00">AppModule</text>
</g>
<!-- AppComponent&#45;&gt;AppModule -->
<g id="edge1" class="edge">
<title>AppComponent&#45;&gt;AppModule</title>
<path fill="none" stroke="black" d="M188.05,-122.11C188.05,-122.11 188.05,-140.99 188.05,-140.99"/>
<polygon fill="black" stroke="black" points="184.55,-140.99 188.05,-150.99 191.55,-140.99 184.55,-140.99"/>
</g>
<!-- AppComponent  -->
<g id="node4" class="node">
<title>AppComponent </title>
<polygon fill="#80b1d3" stroke="black" points="212.44,-252 103.56,-252 103.56,-216 212.44,-216 212.44,-252"/>
<text text-anchor="middle" x="158" y="-229.8" font-family="Times,serif" font-size="14.00">AppComponent </text>
</g>
<!-- AppModule&#45;&gt;AppComponent  -->
<g id="edge3" class="edge">
<title>AppModule&#45;&gt;AppComponent </title>
<path fill="none" stroke="black" stroke-dasharray="1,5" d="M158,-187.11C158,-187.11 158,-205.99 158,-205.99"/>
<polygon fill="black" stroke="black" points="154.5,-205.99 158,-215.99 161.5,-205.99 154.5,-205.99"/>
</g>
<!-- AppRoutingModule -->
<g id="node3" class="node">
<title>AppRoutingModule</title>
<polygon fill="#8dd3c7" stroke="black" points="152.27,-122 149.27,-126 128.27,-126 125.27,-122 23.73,-122 23.73,-86 152.27,-86 152.27,-122"/>
<text text-anchor="middle" x="88" y="-99.8" font-family="Times,serif" font-size="14.00">AppRoutingModule</text>
</g>
<!-- AppRoutingModule&#45;&gt;AppModule -->
<g id="edge2" class="edge">
<title>AppRoutingModule&#45;&gt;AppModule</title>
<path fill="none" stroke="black" d="M134.28,-122.11C134.28,-122.11 134.28,-140.99 134.28,-140.99"/>
<polygon fill="black" stroke="black" points="130.78,-140.99 134.28,-150.99 137.78,-140.99 130.78,-140.99"/>
</g>
<!-- HomePage -->
<g id="node5" class="node">
<title>HomePage</title>
<polygon fill="#ffffb3" stroke="black" points="589.92,-122 512.08,-122 512.08,-86 589.92,-86 589.92,-122"/>
<text text-anchor="middle" x="551" y="-99.8" font-family="Times,serif" font-size="14.00">HomePage</text>
</g>
<!-- HomePageModule -->
<g id="node6" class="node">
<title>HomePageModule</title>
<polygon fill="#8dd3c7" stroke="black" points="531.47,-187 528.47,-191 507.47,-191 504.47,-187 410.53,-187 410.53,-151 531.47,-151 531.47,-187"/>
<text text-anchor="middle" x="471" y="-164.8" font-family="Times,serif" font-size="14.00">HomePageModule</text>
</g>
<!-- HomePage&#45;&gt;HomePageModule -->
<g id="edge4" class="edge">
<title>HomePage&#45;&gt;HomePageModule</title>
<path fill="none" stroke="black" d="M521.89,-122.11C521.89,-122.11 521.89,-140.99 521.89,-140.99"/>
<polygon fill="black" stroke="black" points="518.39,-140.99 521.89,-150.99 525.39,-140.99 518.39,-140.99"/>
</g>
<!-- HomePageRoutingModule -->
<g id="node7" class="node">
<title>HomePageRoutingModule</title>
<polygon fill="#8dd3c7" stroke="black" points="488.09,-122 485.09,-126 464.09,-126 461.09,-122 321.91,-122 321.91,-86 488.09,-86 488.09,-122"/>
<text text-anchor="middle" x="405" y="-99.8" font-family="Times,serif" font-size="14.00">HomePageRoutingModule</text>
</g>
<!-- HomePageRoutingModule&#45;&gt;HomePageModule -->
<g id="edge5" class="edge">
<title>HomePageRoutingModule&#45;&gt;HomePageModule</title>
<path fill="none" stroke="black" d="M449.28,-122.11C449.28,-122.11 449.28,-140.99 449.28,-140.99"/>
<polygon fill="black" stroke="black" points="445.78,-140.99 449.28,-150.99 452.78,-140.99 445.78,-140.99"/>
</g>
<!-- MessageComponent -->
<g id="node8" class="node">
<title>MessageComponent</title>
<polygon fill="#ffffb3" stroke="black" points="774.31,-122 643.69,-122 643.69,-86 774.31,-86 774.31,-122"/>
<text text-anchor="middle" x="709" y="-99.8" font-family="Times,serif" font-size="14.00">MessageComponent</text>
</g>
<!-- MessageComponentModule -->
<g id="node9" class="node">
<title>MessageComponentModule</title>
<polygon fill="#8dd3c7" stroke="black" points="795.86,-187 792.86,-191 771.86,-191 768.86,-187 622.14,-187 622.14,-151 795.86,-151 795.86,-187"/>
<text text-anchor="middle" x="709" y="-164.8" font-family="Times,serif" font-size="14.00">MessageComponentModule</text>
</g>
<!-- MessageComponent&#45;&gt;MessageComponentModule -->
<g id="edge6" class="edge">
<title>MessageComponent&#45;&gt;MessageComponentModule</title>
<path fill="none" stroke="black" d="M709,-122.11C709,-122.11 709,-140.99 709,-140.99"/>
<polygon fill="black" stroke="black" points="705.5,-140.99 709,-150.99 712.5,-140.99 705.5,-140.99"/>
</g>
<!-- MessageComponent  -->
<g id="node10" class="node">
<title>MessageComponent </title>
<polygon fill="#fb8072" stroke="black" points="775.81,-252 642.19,-252 642.19,-216 775.81,-216 775.81,-252"/>
<text text-anchor="middle" x="709" y="-229.8" font-family="Times,serif" font-size="14.00">MessageComponent </text>
</g>
<!-- MessageComponentModule&#45;&gt;MessageComponent  -->
<g id="edge7" class="edge">
<title>MessageComponentModule&#45;&gt;MessageComponent </title>
<path fill="none" stroke="black" stroke-dasharray="5,2" d="M709,-187.11C709,-187.11 709,-205.99 709,-205.99"/>
<polygon fill="black" stroke="black" points="705.5,-205.99 709,-215.99 712.5,-205.99 705.5,-205.99"/>
</g>
<!-- ViewMessagePage -->
<g id="node11" class="node">
<title>ViewMessagePage</title>
<polygon fill="#ffffb3" stroke="black" points="1186.01,-122 1063.99,-122 1063.99,-86 1186.01,-86 1186.01,-122"/>
<text text-anchor="middle" x="1125" y="-99.8" font-family="Times,serif" font-size="14.00">ViewMessagePage</text>
</g>
<!-- ViewMessagePageModule -->
<g id="node12" class="node">
<title>ViewMessagePageModule</title>
<polygon fill="#8dd3c7" stroke="black" points="1105.06,-187 1102.06,-191 1081.06,-191 1078.06,-187 938.94,-187 938.94,-151 1105.06,-151 1105.06,-187"/>
<text text-anchor="middle" x="1022" y="-164.8" font-family="Times,serif" font-size="14.00">ViewMessagePageModule</text>
</g>
<!-- ViewMessagePage&#45;&gt;ViewMessagePageModule -->
<g id="edge8" class="edge">
<title>ViewMessagePage&#45;&gt;ViewMessagePageModule</title>
<path fill="none" stroke="black" d="M1084.39,-122.11C1084.39,-122.11 1084.39,-140.99 1084.39,-140.99"/>
<polygon fill="black" stroke="black" points="1080.89,-140.99 1084.39,-150.99 1087.89,-140.99 1080.89,-140.99"/>
</g>
<!-- ViewMessagePageRoutingModule -->
<g id="node13" class="node">
<title>ViewMessagePageRoutingModule</title>
<polygon fill="#8dd3c7" stroke="black" points="1039.68,-122 1036.68,-126 1015.68,-126 1012.68,-122 828.32,-122 828.32,-86 1039.68,-86 1039.68,-122"/>
<text text-anchor="middle" x="934" y="-99.8" font-family="Times,serif" font-size="14.00">ViewMessagePageRoutingModule</text>
</g>
<!-- ViewMessagePageRoutingModule&#45;&gt;ViewMessagePageModule -->
<g id="edge9" class="edge">
<title>ViewMessagePageRoutingModule&#45;&gt;ViewMessagePageModule</title>
<path fill="none" stroke="black" d="M989.28,-122.11C989.28,-122.11 989.28,-140.99 989.28,-140.99"/>
<polygon fill="black" stroke="black" points="985.78,-140.99 989.28,-150.99 992.78,-140.99 985.78,-140.99"/>
</g>
</g>
</svg>
